<?xml version="1.0" encoding="UTF-8"?>
<svg version="1.1" xmlns="http://www.w3.org/2000/svg" width="5998" height="1295">
<path d="M0 0 C79.53 0 159.06 0 241 0 C241.33 136.62 241.66 273.24 242 414 C245.63 409.71 249.26 405.42 253 401 C269.12255214 382.81526095 286.9995756 368.00165463 308.21728516 356.00878906 C309.94908464 355.02881159 311.66814787 354.02643273 313.38671875 353.0234375 C381.47770767 314.23144735 471.41694855 309.73593723 547 325 C547.8971875 325.17756836 548.794375 325.35513672 549.71875 325.53808594 C565.12566778 328.64271269 580.07521933 333.10582654 595 338 C595.73847168 338.2376709 596.47694336 338.4753418 597.23779297 338.72021484 C639.0677311 352.37661372 676.60650014 378.72238284 708 409 C708.9384375 409.8971875 709.876875 410.794375 710.84375 411.71875 C715.85174236 416.60308823 720.38278763 421.71462844 724.73828125 427.1875 C726.21995871 429.03000047 727.73753121 430.84432875 729.29296875 432.625 C765.43598175 474.13345213 786.24825297 529.33297532 795 583 C795.22961426 584.38687012 795.22961426 584.38687012 795.46386719 585.80175781 C801.45869159 623.13132726 800.33478147 661.32588393 800.40062014 699.00951339 C800.41453749 706.75949087 800.43953379 714.50942259 800.46498732 722.25936935 C800.51007186 736.07174194 800.54684169 749.88412295 800.578125 763.6965332 C800.60846997 777.08652207 800.64289114 790.47649061 800.68261719 803.86645508 C800.68507874 804.69660551 800.68754028 805.52675595 800.69007643 806.38206246 C800.7024541 810.54811447 800.71491004 814.71416625 800.72740483 818.88021791 C800.8303962 853.25345067 800.91978567 887.62670669 801 922 C808.06802007 919.64791356 815.13574351 917.29493754 822.20312319 914.94092763 C825.48736622 913.84703731 828.77169825 912.75341601 832.05626106 911.66048622 C847.7541337 906.436811 863.43840289 901.17744365 879.0859375 895.8046875 C893.54786175 890.84562029 908.03283427 885.96085263 922.5390625 881.1328125 C923.52936211 880.80319267 924.51966171 880.47357285 925.5399704 880.13396454 C932.56758795 877.79545844 939.59619553 875.45993573 946.625 873.125 C953.72464452 870.76643915 960.82401477 868.40705969 967.92247772 866.04494476 C969.86183199 865.39963833 971.80126873 864.7545797 973.74079132 864.10977936 C985.48822317 860.20298322 997.2229497 856.27078474 1008.87075806 852.07376099 C1014.68902137 850 1014.68902137 850 1018 850 C1018.26103516 850.67353516 1018.52207031 851.34707031 1018.79101562 852.04101562 C1023.7134091 864.68751516 1028.65989818 877.19912411 1035.04101562 889.18798828 C1036.02180616 891.04120298 1036.97362695 892.90729473 1037.921875 894.77734375 C1062.59638418 942.93603403 1104.73304424 978.20653428 1156 995 C1188.39480682 1004.9975249 1223.53587016 1006.32515756 1257 1002 C1257.75796875 1001.90348145 1258.5159375 1001.80696289 1259.296875 1001.70751953 C1302.1684826 996.00192315 1345.42168305 976.21434946 1373 942 C1400.7047693 905.75786529 1414.26860374 862.74138236 1412 817 C1411.9383667 815.72600342 1411.9383667 815.72600342 1411.87548828 814.42626953 C1409.64571783 773.15770644 1397.04859207 734.2332818 1368 704 C1367.55962402 703.52852539 1367.11924805 703.05705078 1366.66552734 702.57128906 C1342.67704114 676.92238242 1309.20498066 662.01936438 1275.1875 655.125 C1273.77815186 654.83858643 1273.77815186 654.83858643 1272.34033203 654.54638672 C1255.81078974 651.43351577 1239.28512971 650.61922992 1222.5 650.6875 C1221.5395578 650.68965515 1220.5791156 650.6918103 1219.58956909 650.69403076 C1177.26464801 650.84576914 1136.83118313 659.44402614 1097.82226562 675.85253906 C1094.24064004 677.30873632 1090.62435624 678.65367247 1087 680 C1081.14489934 668.3531025 1075.39069455 656.65945492 1069.6875 644.9375 C1069.27136444 644.08283142 1068.85522888 643.22816284 1068.42648315 642.34759521 C1062.75553361 630.69932714 1057.11339079 619.03844553 1051.546875 607.33984375 C1049.695808 603.45041675 1047.82837527 599.56923135 1045.953125 595.69140625 C1040.08674816 583.54996317 1034.37103369 571.36917465 1029 559 C1029.71285156 558.29875 1030.42570312 557.5975 1031.16015625 556.875 C1035.92569401 552.16372042 1040.58581351 547.44094246 1044.94140625 542.34375 C1047.80792363 539.08016285 1050.77985698 535.91918139 1053.75 532.75 C1059.87898327 526.20729012 1065.9530529 519.61859351 1072 513 C1073.8325302 510.99926337 1075.66627021 508.99963714 1077.5 507 C1078.41668877 506.00002026 1079.33335546 505.00002028 1080.25 504 C1082.08333333 502 1083.91666667 500 1085.75 498 C1086.20366943 497.50508057 1086.65733887 497.01016113 1087.12475586 496.50024414 C1088.04220685 495.49940332 1088.95968736 494.49858955 1089.87719727 493.49780273 C1092.15710551 491.01088739 1094.43651293 488.52351685 1096.71484375 486.03515625 C1101.96938349 480.29744044 1107.23746288 474.57254983 1112.51708984 468.85791016 C1117.23861697 463.74559385 1121.9416967 458.61652283 1126.64111328 453.48388672 C1129.38528868 450.48728269 1132.1315719 447.49261017 1134.87744141 444.49755859 C1137.15725366 442.01071125 1139.43659058 439.52343204 1141.71484375 437.03515625 C1146.96938349 431.29744044 1152.23746288 425.57254983 1157.51708984 419.85791016 C1162.23861697 414.74559385 1166.9416967 409.61652283 1171.64111328 404.48388672 C1173.92642496 401.98835593 1176.2132958 399.49425473 1178.5 397 C1179.41667404 396.00000675 1180.3333407 395.00000676 1181.25 394 C1183.08333333 392 1184.91666667 390 1186.75 388 C1187.20366943 387.50508057 1187.65733887 387.01016113 1188.12475586 386.50024414 C1189.04220685 385.49940332 1189.95968736 384.49858955 1190.87719727 383.49780273 C1193.15710551 381.01088739 1195.43651293 378.52351685 1197.71484375 376.03515625 C1202.96938349 370.29744044 1208.23746288 364.57254983 1213.51708984 358.85791016 C1218.23861697 353.74559385 1222.9416967 348.61652283 1227.64111328 343.48388672 C1230.38528868 340.48728269 1233.1315719 337.49261017 1235.87744141 334.49755859 C1238.15725366 332.01071125 1240.43659058 329.52343204 1242.71484375 327.03515625 C1247.96938349 321.29744044 1253.23746288 315.57254983 1258.51708984 309.85791016 C1263.23861697 304.74559385 1267.9416967 299.61652283 1272.64111328 294.48388672 C1275.38528868 291.48728269 1278.1315719 288.49261017 1280.87744141 285.49755859 C1283.15725366 283.01071125 1285.43659058 280.52343204 1287.71484375 278.03515625 C1292.96938349 272.29744044 1298.23746288 266.57254983 1303.51708984 260.85791016 C1307.77452755 256.2480948 1312.01788387 251.62559281 1316.25390625 246.99609375 C1318.1728259 244.89976585 1320.09822749 242.8096037 1322.02734375 240.72265625 C1322.77359009 239.91356812 1322.77359009 239.91356812 1323.53491211 239.08813477 C1324.91795185 237.58893905 1326.30267326 236.0912952 1327.6875 234.59375 C1330.2070724 231.84131163 1330.2070724 231.84131163 1333 228 C1180.21 228 1027.42 228 870 228 C870 159.03 870 90.06 870 19 C1115.19 19 1360.38 19 1613 19 C1613 213.68850737 1613 213.68850737 1597.875 229.6875 C1596.84043767 230.79621462 1595.80657868 231.90558598 1594.7734375 233.015625 C1594.29100586 233.53318359 1593.80857422 234.05074219 1593.31152344 234.58398438 C1589.50937987 238.68905376 1585.89120104 242.95381885 1582.26171875 247.2109375 C1576.67681067 253.75655431 1571.03446039 260.22039507 1565.22265625 266.56640625 C1561.13950243 271.037065 1557.18157621 275.61141889 1553.25390625 280.21875 C1547.67243614 286.76251142 1542.03199262 293.22308967 1536.22265625 299.56640625 C1532.13950243 304.037065 1528.18157621 308.61141889 1524.25390625 313.21875 C1518.67243614 319.76251142 1513.03199262 326.22308967 1507.22265625 332.56640625 C1503.1506196 337.02489278 1499.20157882 341.58497728 1495.2890625 346.18359375 C1490.38650018 351.93971645 1485.45946072 357.64776645 1480.3125 363.1875 C1476.92475627 366.83413376 1473.68102204 370.55617401 1470.5625 374.4375 C1466.19859541 379.85908343 1461.5157847 384.92842117 1456.7734375 390.015625 C1452.46894486 394.63353761 1448.35687595 399.40761607 1444.26171875 404.2109375 C1438.67681067 410.75655431 1433.03446039 417.22039507 1427.22265625 423.56640625 C1423.13950243 428.037065 1419.18157621 432.61141889 1415.25390625 437.21875 C1409.68264663 443.75054055 1404.05385706 450.20064559 1398.25390625 456.53125 C1393.66404884 461.55861548 1389.24477954 466.6784959 1385 472 C1386.1746582 472.2630896 1386.1746582 472.2630896 1387.37304688 472.53149414 C1441.46070999 484.71542701 1491.97800029 503.3462288 1536 538 C1537.03930664 538.81500977 1537.03930664 538.81500977 1538.09960938 539.64648438 C1545.49943655 545.47562545 1552.65888903 551.33934253 1559.1875 558.15234375 C1560.76684653 559.76232416 1562.35780285 561.168071 1564.125 562.5625 C1567.08282497 565.07022117 1569.4690247 567.71668007 1571.97265625 570.6640625 C1574.28440821 573.32769963 1576.70418883 575.87263476 1579.125 578.4375 C1590.06028406 590.22918466 1599.41002843 603.43189802 1608 617 C1608.68545898 618.07096924 1608.68545898 618.07096924 1609.38476562 619.16357422 C1634.86402046 659.23564991 1649.8264486 704.4769951 1657.25 751.1875 C1657.40106201 752.12182861 1657.55212402 753.05615723 1657.70776367 754.01879883 C1660.67533983 773.89469668 1661.37898454 793.87173642 1661.3125 813.9375 C1661.31067719 815.08920685 1661.30885437 816.2409137 1661.30697632 817.42752075 C1661.04710132 915.4444122 1628.04327578 1012.44883051 1561.3359375 1085.41796875 C1560.05411249 1086.83483553 1558.77886287 1088.25815926 1557.53588867 1089.70922852 C1552.48061298 1095.60171209 1547.062314 1101.08613937 1541.5625 1106.5625 C1540.65951172 1107.46935547 1539.75652344 1108.37621094 1538.82617188 1109.31054688 C1533.71330831 1114.41600586 1528.5102894 1119.32693287 1523 1124 C1522.10796875 1124.7734375 1521.2159375 1125.546875 1520.296875 1126.34375 C1507.21393717 1137.42010228 1493.42673019 1147.74110905 1479 1157 C1477.74292236 1157.80969238 1477.74292236 1157.80969238 1476.46044922 1158.63574219 C1432.46775892 1186.81558259 1384.97400237 1206.63098513 1334 1218 C1332.96004883 1218.23412598 1331.92009766 1218.46825195 1330.84863281 1218.70947266 C1318.64320667 1221.41471956 1306.38566719 1223.49564751 1294 1225.1875 C1292.31318115 1225.4198938 1292.31318115 1225.4198938 1290.59228516 1225.65698242 C1268.07144121 1228.57000808 1245.62884952 1229.37615946 1222.9375 1229.3125 C1221.53354906 1229.31027667 1220.12959805 1229.3081002 1218.72564697 1229.30596924 C1198.66735819 1229.26379628 1178.88299083 1228.90440251 1159 1226 C1157.53244561 1225.79354481 1156.0648319 1225.587511 1154.59716797 1225.38183594 C1124.68472126 1221.13963214 1095.73121385 1214.42525721 1067 1205 C1066.11554199 1204.71157227 1065.23108398 1204.42314453 1064.31982422 1204.12597656 C1023.42703662 1190.66520492 983.95232987 1171.14561492 949 1146 C947.80769775 1145.15139404 947.80769775 1145.15139404 946.59130859 1144.28564453 C936.09923756 1136.80323461 926.11214454 1128.95062003 916.51416016 1120.35107422 C914.53211551 1118.58251004 912.51546124 1116.85529081 910.5 1115.125 C907.40673318 1112.42006538 904.52366127 1109.5470503 901.6484375 1106.61328125 C899.83792699 1104.79180525 899.83792699 1104.79180525 897 1102.5625 C893.95227248 1099.95923274 891.49863523 1097.20375242 888.91015625 1094.16015625 C886.90580785 1091.89348004 884.7942285 1089.79636736 882.625 1087.6875 C878.18720351 1083.28699591 874.22513593 1078.62699991 870.35742188 1073.72119141 C869.37529579 1072.47586966 868.38909489 1071.2337579 867.40039062 1069.99365234 C859.41687582 1059.9736647 851.86599103 1049.81839231 845 1039 C844.32710937 1037.948125 843.65421875 1036.89625 842.9609375 1035.8125 C840.92572235 1032.56912924 838.94227796 1029.29953243 837 1026 C836.61875977 1025.35256836 836.23751953 1024.70513672 835.84472656 1024.03808594 C826.51417958 1008.04608478 818.89109877 991.36172555 812.3125 974.0625 C811.98048584 973.19608887 811.64847168 972.32967773 811.30639648 971.43701172 C807.35213877 960.76368389 804.32719183 949.93220172 801 939 C800.67 1028.43 800.34 1117.86 800 1210 C720.47 1210 640.94 1210 559 1210 C558.96261719 1172.3078125 558.92523437 1134.615625 558.88671875 1095.78125 C558.85825485 1073.34424248 558.82958739 1050.90723886 558.79718363 1028.47023726 C558.77818821 1015.30687974 558.75933103 1002.14352204 558.7409003 988.98016372 C558.73867083 987.38812578 558.73643701 985.79608784 558.73419879 984.20404992 C558.69860828 958.86308615 558.67258574 933.52212377 558.65161031 908.18114404 C558.62998577 882.11766753 558.59857663 856.05422045 558.55500887 829.99077096 C558.54884742 826.3021106 558.5427968 822.61345008 558.53681374 818.92478943 C558.53563285 818.19887043 558.53445197 817.47295143 558.53323531 816.72503488 C558.5145774 805.08082489 558.50611048 793.43662914 558.50153876 781.79240603 C558.49671232 770.06114976 558.48071158 758.3299507 558.45433434 746.59872288 C558.440385 740.25259036 558.43112384 733.90654689 558.43499184 727.5603981 C558.43843514 721.73393486 558.42784943 715.90766086 558.40676448 710.0812363 C558.401553 707.98930879 558.40120116 705.89736131 558.40660437 703.80543429 C558.51535237 656.86858036 546.68195733 613.43735531 513.8203125 578.796875 C481.74642663 546.98953112 439.91840766 535.67326344 395.79663086 535.75341797 C353.28870083 535.98173633 313.11039657 551.59697559 283 582 C255.52782505 610.4276466 241.81272501 651.40012471 241.8613348 690.49206734 C241.85707147 691.84909952 241.85707147 691.84909952 241.85272202 693.2335465 C241.84443106 696.25085069 241.84311124 699.26811622 241.84178162 702.28543091 C241.83721245 704.47608177 241.83221191 706.66673176 241.82681805 708.85738075 C241.81326797 714.86621789 241.80582766 720.87504938 241.79939139 726.88389778 C241.79137368 733.36777022 241.77768063 739.85163098 241.76467896 746.335495 C241.74276627 757.56564043 241.72474902 768.79578799 241.70907402 780.02594376 C241.69262259 791.80165173 241.67413548 803.57735362 241.65294075 815.35305405 C241.65162314 816.0857441 241.65030554 816.81843415 241.648948 817.57332693 C241.64224574 821.29442115 241.63550722 825.01551531 241.62875474 828.73660944 C241.58101546 855.08025977 241.53782362 881.42391577 241.49731445 907.76757812 C241.45795451 933.35710056 241.41651296 958.94661826 241.37231445 984.53613281 C241.36953711 986.1458087 241.36675984 987.75548458 241.36398262 989.36516047 C241.34140477 1002.44484562 241.31868341 1015.52453053 241.29592726 1028.60421538 C241.19083273 1089.06946749 241.09622359 1149.53473181 241 1210 C161.47 1210 81.94 1210 0 1210 C0 810.7 0 411.4 0 0 Z " fill="#FEFEFE" transform="translate(2491,66)"/>
<path d="M0 0 C0.86791168 -0.00100708 1.73582336 -0.00201416 2.6300354 -0.00305176 C22.07337433 0.01192855 41.35197728 1.25943536 60.6875 3.25 C61.37009888 3.32025391 62.05269775 3.39050781 62.75598145 3.46289062 C146.70671555 12.25709345 228.5394928 44.51226567 291.6875 101.25 C292.35652344 101.8275 293.02554688 102.405 293.71484375 103 C299.84205335 108.36261763 305.60977164 114.0655003 311.375 119.8125 C312.18300049 120.6159082 312.99100098 121.41931641 313.82348633 122.24707031 C318.65063973 127.0866252 323.26599335 132.0379319 327.6875 137.25 C328.23543213 137.89122803 328.78336426 138.53245605 329.34790039 139.19311523 C338.07735556 149.47248101 346.15496849 160.06584396 353.6875 171.25 C354.22262207 172.0430957 354.75774414 172.83619141 355.30908203 173.65332031 C362.58074456 184.49144838 369.34250211 195.50685645 375.49023438 207.02001953 C376.68850858 209.25187854 377.91243442 211.46808198 379.140625 213.68359375 C404.94635977 260.76114258 418.23108497 313.43261129 425.6875 366.25 C425.8827124 365.34685059 426.0779248 364.44370117 426.27905273 363.51318359 C434.44581028 326.02992123 445.13465288 289.99322261 461.6875 255.25 C462.12787598 254.32010254 462.56825195 253.39020508 463.02197266 252.43212891 C470.32826728 237.11051141 478.56237993 222.55870299 487.6875 208.25 C488.13834961 207.54053223 488.58919922 206.83106445 489.05371094 206.10009766 C498.4310947 191.44107268 508.75448217 177.30954908 520.16796875 164.171875 C522.61786343 161.33075683 524.96963345 158.42959478 527.3125 155.5 C530.82616513 151.17693701 534.5782515 147.25166405 538.56640625 143.3671875 C540.56157538 141.37569272 542.41503901 139.32620737 544.25 137.1875 C549.55964488 131.02146078 555.34102139 125.44445348 561.51171875 120.1484375 C563.99402198 117.98254995 566.39805145 115.74123043 568.8125 113.5 C574.62697167 108.19951477 580.74381628 103.36306183 586.98046875 98.57177734 C588.54179458 97.36282168 590.0844437 96.12984435 591.625 94.89453125 C662.75995691 38.42169976 753.54239143 7.17336539 843.6875 1.25 C844.48720215 1.19360352 845.2869043 1.13720703 846.11083984 1.07910156 C906.15461448 -2.99534048 968.11437754 2.21135098 1025.6875 20.25 C1026.74630371 20.57693848 1027.80510742 20.90387695 1028.89599609 21.24072266 C1076.41852267 36.04189982 1122.51720395 58.07980538 1161.85693359 88.82080078 C1163.69424726 90.25526786 1165.54316582 91.67357609 1167.39453125 93.08984375 C1173.85296987 98.06060608 1180.02876962 103.20488164 1185.9921875 108.765625 C1188.10113643 110.70952575 1190.23630863 112.58804755 1192.41015625 114.45703125 C1197.23132806 118.66083026 1201.73939369 123.15529462 1206.25 127.6875 C1207.06146484 128.49509766 1207.87292969 129.30269531 1208.70898438 130.13476562 C1213.57577233 135.00940957 1218.23027184 139.99870607 1222.6875 145.25 C1223.75677734 146.49716797 1223.75677734 146.49716797 1224.84765625 147.76953125 C1254.22896516 183.18396314 1278.16738616 224.78265845 1290.6875 269.25 C1282.06281184 273.83243263 1273.08661649 277.58639655 1264.10638428 281.4019165 C1259.3768848 283.41151255 1254.65174539 285.43132638 1249.92578125 287.44921875 C1248.96724243 287.85813354 1248.00870361 288.26704834 1247.02111816 288.68835449 C1239.07788006 292.07829483 1231.14909423 295.50078593 1223.22573853 298.93688965 C1211.75805314 303.90996785 1200.28011086 308.85846627 1188.7890625 313.77734375 C1187.65005997 314.2649115 1186.51105743 314.75247925 1185.33753967 315.25482178 C1180.59852371 317.28314609 1175.85939487 319.31120596 1171.1199646 321.33856201 C1157.63043397 327.11000498 1144.15183466 332.90482584 1130.69921875 338.76171875 C1129.47559821 339.29419937 1128.25197559 339.8266752 1127.02835083 340.35914612 C1121.2348628 342.88113731 1115.44325336 345.40732216 1109.65429688 347.93969727 C1107.56514323 348.85051279 1105.47595251 349.76124328 1103.38671875 350.671875 C1102.46203293 351.07810593 1101.53734711 351.48433685 1100.5846405 351.90287781 C1094.37019951 354.60690264 1088.08045356 357.0014025 1081.6875 359.25 C1081.35395508 358.38331192 1081.35395508 358.38331192 1081.01367188 357.49911499 C1076.48533808 345.75496614 1071.63465831 334.347456 1065.6875 323.25 C1065.20845215 322.34991211 1065.20845215 322.34991211 1064.71972656 321.43164062 C1042.42783072 279.92571476 1004.62348517 247.87368419 960.6875 231.25 C959.58801025 230.83258545 959.58801025 230.83258545 958.46630859 230.40673828 C949.51432961 227.07413231 940.44649863 224.57513946 931.125 222.5 C930.24038086 222.30124268 929.35576172 222.10248535 928.44433594 221.89770508 C914.24315315 218.89993459 900.15487884 217.91525666 885.67626953 217.98925781 C883.18887988 217.99999404 880.70221203 217.98927561 878.21484375 217.9765625 C863.47703176 217.96238322 849.18229877 219.42125923 834.75 222.5 C833.72986816 222.71760986 832.70973633 222.93521973 831.65869141 223.15942383 C779.69783656 234.63706446 735.51305236 267.78725325 706.93847656 312.26367188 C696.26924962 329.31946063 688.04423398 347.17979807 681.6875 366.25 C681.25099121 367.55952637 681.25099121 367.55952637 680.80566406 368.89550781 C675.88760687 384.02041634 673.06161531 399.54668582 670.6875 415.25 C670.55327637 416.12994629 670.41905273 417.00989258 670.28076172 417.91650391 C662.84745791 469.63598906 670.58731719 526.03331083 692.6875 573.25 C693.02394531 573.97654785 693.36039063 574.7030957 693.70703125 575.45166016 C703.60687955 596.6466043 716.91988566 615.92815993 733.20507812 632.71630859 C734.6682967 634.23013256 736.10806706 635.76378306 737.546875 637.30078125 C773.32322086 674.95144494 825.92602632 692.88624509 876.8828125 694.43359375 C912.74811498 695.11029757 948.6220786 688.75640442 980.6875 672.25 C981.93738833 671.62868156 983.18739111 671.0075933 984.4375 670.38671875 C1001.24365474 661.88468041 1015.95423408 650.05593928 1029.6875 637.25 C1030.42742187 636.56421875 1031.16734375 635.8784375 1031.9296875 635.171875 C1054.79912081 613.19768641 1071.36189036 582.97178246 1081.6875 553.25 C1086.00851949 553.90454496 1089.73396634 555.45075489 1093.6796875 557.25 C1094.36480911 557.55714935 1095.04993073 557.86429871 1095.7558136 558.18075562 C1097.24356795 558.84821669 1098.73031298 559.51793109 1100.21615601 560.18963623 C1104.2784756 562.02548661 1108.34873074 563.84361198 1112.41796875 565.6640625 C1113.26553238 566.04374176 1114.11309601 566.42342102 1114.98634338 566.81460571 C1123.92243981 570.8131184 1132.89617418 574.72362188 1141.875 578.625 C1145.15253499 580.05034184 1148.42983137 581.47623159 1151.70703125 582.90234375 C1152.52587799 583.25863358 1153.34472473 583.6149234 1154.18838501 583.98200989 C1163.48847235 588.03064327 1172.77606751 592.10766485 1182.0625 596.1875 C1182.91121674 596.56034119 1183.75993347 596.93318237 1184.6343689 597.31732178 C1188.93313906 599.20586892 1193.23174728 601.09478428 1197.53027344 602.98388672 C1205.23143319 606.36814915 1212.93409212 609.74899628 1220.6366272 613.13012695 C1223.16955441 614.24212161 1225.7023508 615.35441372 1228.23510742 616.46679688 C1236.24591801 619.98489336 1244.25771484 623.50069872 1252.27255249 627.00961304 C1256.06127563 628.66846975 1259.84950455 630.32845336 1263.63769531 631.98852539 C1265.44490263 632.78010541 1267.25235236 633.57113225 1269.06005859 634.36157227 C1271.56539311 635.45709909 1274.06988839 636.55452381 1276.57421875 637.65234375 C1277.30980515 637.97339584 1278.04539154 638.29444794 1278.80326843 638.62522888 C1282.82526042 640.39082032 1286.77512057 642.24878976 1290.6875 644.25 C1276.75379051 688.66765255 1254.42499995 729.21531667 1223.6875 764.25 C1223.089375 764.94738281 1222.49125 765.64476562 1221.875 766.36328125 C1210.30565998 779.79595247 1198.22491425 793.07743293 1184.31640625 804.1171875 C1181.7774645 806.17701246 1179.39162166 808.33457865 1177 810.5625 C1116.48694492 865.46192261 1032.85607017 896.11848299 953.125 907.4375 C952.0522583 907.59234863 950.9795166 907.74719727 949.87426758 907.90673828 C927.49836982 910.93500572 905.11914723 911.65730063 882.5625 911.625 C881.86606636 911.6249081 881.16963272 911.62481621 880.45209503 911.62472153 C857.70703411 911.62085527 835.25300395 910.84986808 812.71795654 907.54748535 C810.69983651 907.25180744 808.68046413 906.96642654 806.66064453 906.68261719 C747.57970753 898.19957626 689.63038757 878.5924197 638.6875 847.25 C637.9258252 846.78335938 637.16415039 846.31671875 636.37939453 845.8359375 C613.22410475 831.5953153 591.14222078 815.68358836 571.01953125 797.3671875 C568.92926111 795.46948831 566.81763885 793.60266585 564.6875 791.75 C563.3539998 790.58352407 562.0206772 789.41684508 560.6875 788.25 C559.87152344 787.53972656 559.05554687 786.82945312 558.21484375 786.09765625 C553.67031972 782.0877821 549.49065272 778.03742264 545.58984375 773.40234375 C543.27875278 770.78753651 540.80753845 768.37717005 538.3125 765.9375 C532.99545616 760.69789321 528.32945561 755.08772337 523.6875 749.25 C522.6571841 747.99555584 521.6244813 746.74306965 520.58984375 745.4921875 C513.57131373 736.98729524 506.98332443 728.30024761 500.6875 719.25 C500.11 718.44949219 499.5325 717.64898438 498.9375 716.82421875 C455.85886249 656.86621125 430.0227308 585.40098075 421.6875 512.25 C421.48253906 512.96027344 421.27757812 513.67054688 421.06640625 514.40234375 C420.79699219 515.32144531 420.52757812 516.24054687 420.25 517.1875 C419.98316406 518.10402344 419.71632813 519.02054688 419.44140625 519.96484375 C418.6875 522.25 418.6875 522.25 417.6875 523.25 C416.34302645 523.34677565 414.99350362 523.37447432 413.64555162 523.3741985 C412.76748642 523.37644579 411.88942122 523.37869308 410.98474798 523.38100848 C409.5183059 523.37706796 409.5183059 523.37706796 408.02223873 523.37304783 C406.98948857 523.37420167 405.9567384 523.37535552 404.89269277 523.37654433 C401.38555374 523.37921944 397.8784594 523.37468152 394.37132263 523.37025452 C391.85020644 523.37069004 389.3290903 523.37156459 386.8079744 523.37284368 C381.30261699 523.37462139 375.79727376 523.37326383 370.2919178 523.36920547 C362.10556865 523.36318748 353.91922634 523.36286808 345.73287538 523.36374746 C331.96426855 523.36506355 318.19566651 523.3617117 304.42706108 523.35573006 C290.78784601 523.34981977 277.14863293 523.34596548 263.50941658 523.34487724 C262.23893287 523.34477413 262.23893287 523.34477413 260.94278281 523.34466894 C256.64162433 523.34433062 252.34046585 523.34402923 248.03930736 523.34374207 C217.54776931 523.34163979 187.05623385 523.33489724 156.56469727 523.32543945 C126.9364422 523.31626002 97.30818784 523.30917396 67.67993164 523.30493164 C66.767195 523.30480011 65.85445837 523.30466859 64.91406305 523.30453308 C55.74826532 523.30321459 46.58246758 523.30193877 37.41666985 523.30069422 C18.74368664 523.29815778 0.07070348 523.29533652 -18.60227966 523.29234314 C-19.46089611 523.29220585 -20.31951255 523.29206856 -21.20414767 523.29192711 C-78.57359954 523.28272127 -135.94304993 523.26685472 -193.3125 523.25 C-192.99370377 524.51466599 -192.67490753 525.77933197 -192.34645081 527.08232117 C-191.57244323 530.15281245 -190.89798361 533.21387299 -190.33984375 536.33203125 C-180.71168798 587.62367921 -155.44432456 635.35379054 -112.08935547 665.74462891 C-81.29664479 686.67824016 -47.2040486 697.59073159 -10.3125 701.25 C-9.02730469 701.38148438 -7.74210937 701.51296875 -6.41796875 701.6484375 C51.83551604 706.48654959 110.65396443 693.85741928 156.04443359 655.80541992 C158.96134789 653.32693753 161.83283544 650.79977127 164.6875 648.25 C165.48929688 647.53457031 166.29109375 646.81914063 167.1171875 646.08203125 C177.32817144 636.41338895 185.66705471 624.41661503 192.97265625 612.45239258 C195.49662768 608.34543616 195.49662768 608.34543616 197.6875 607.25 C200.26711401 608.30036789 202.72793402 609.41967984 205.2265625 610.640625 C206.39002701 611.19740936 206.39002701 611.19740936 207.57699585 611.76544189 C210.15903971 613.00306211 212.735637 614.25163314 215.3125 615.5 C217.12590073 616.37127854 218.93970917 617.24170899 220.75390625 618.11132812 C224.52926606 619.92183052 228.30282966 621.73600207 232.07519531 623.55273438 C239.77798936 627.25899862 247.50168936 630.92100647 255.22576904 634.5826416 C259.38071019 636.55292411 263.53401484 638.52665057 267.6875 640.5 C269.35415898 641.29168285 271.02082564 642.08334952 272.6875 642.875 C276.02083333 644.45833333 279.35416667 646.04166667 282.6875 647.625 C283.51244965 648.01684982 284.33739929 648.40869965 285.18734741 648.81242371 C286.85452665 649.60433639 288.52170194 650.39625737 290.18887329 651.18818665 C294.34766541 653.1636573 298.50652528 655.13898506 302.66552734 657.11401367 C310.2593961 660.72036851 317.85272578 664.32783887 325.44355774 667.94058228 C328.8852605 669.57848631 332.32738324 671.21550683 335.76950073 672.85253906 C338.28176538 674.04787645 340.79335406 675.24462606 343.30493164 676.44140625 C351.12398098 680.16295225 358.95625036 683.84911026 366.83203125 687.44921875 C368.25246701 688.10109981 369.67287788 688.75303512 371.09326172 689.4050293 C373.71340272 690.60717709 376.33923972 691.795432 378.96923828 692.97583008 C380.11247559 693.49943115 381.25571289 694.02303223 382.43359375 694.5625 C383.43060303 695.01238281 384.4276123 695.46226562 385.45483398 695.92578125 C387.6875 697.25 387.6875 697.25 388.6875 700.25 C387.68099694 703.00654891 386.60425812 705.59392443 385.375 708.25 C385.00890625 709.05034668 384.6428125 709.85069336 384.265625 710.67529297 C383.0916464 713.20952539 381.89486518 715.73151551 380.6875 718.25 C380.32221191 719.01473633 379.95692383 719.77947266 379.58056641 720.56738281 C367.7208068 745.02913106 351.68379623 767.12813165 332.984375 786.765625 C330.18971087 789.70082081 327.4880826 792.70537153 324.8125 795.75 C321.65487263 799.27979708 318.3713889 802.44761989 314.75 805.49609375 C312.51961342 807.39276719 310.39307502 809.38034741 308.25 811.375 C301.11038959 817.81271323 293.39575859 823.51840295 285.6875 829.25 C285.08389648 829.70020508 284.48029297 830.15041016 283.85839844 830.61425781 C214.62997959 881.97217677 124.45191612 910.14782164 30.76171875 911.453125 C29.37330087 911.46014778 27.98488332 911.4672346 26.59646606 911.47438049 C22.18930591 911.4937603 17.78219847 911.49881384 13.375 911.5 C12.62446224 911.50044186 11.87392448 911.50088371 11.10064316 911.50133896 C-11.17192919 911.50821671 -33.2018276 911.29657067 -55.3125 908.25 C-56.61300293 908.07839355 -57.91350586 907.90678711 -59.25341797 907.72998047 C-125.41512899 898.89585571 -190.45290862 877.64575014 -245.63769531 839.40722656 C-247.25781519 838.28778513 -248.89044631 837.18651794 -250.5234375 836.0859375 C-264.83115214 826.37082262 -278.36004166 815.70084562 -291.3125 804.25 C-292.158125 803.50492188 -293.00375 802.75984375 -293.875 801.9921875 C-296.37336052 799.76503059 -298.84543354 797.51177772 -301.3125 795.25 C-301.85986816 794.75306641 -302.40723633 794.25613281 -302.97119141 793.74414062 C-317.81978913 780.24614845 -331.64788826 765.75720519 -343.9375 749.875 C-344.53868652 749.09825928 -345.13987305 748.32151855 -345.75927734 747.52124023 C-393.54029323 685.45343799 -422.63123388 615.05943271 -436.3125 538.25 C-436.47733887 537.34830078 -436.64217773 536.44660156 -436.81201172 535.51757812 C-437.84589373 529.78180074 -438.64031688 524.03888741 -439.3125 518.25 C-439.51552734 516.53828613 -439.51552734 516.53828613 -439.72265625 514.79199219 C-444.37755094 473.66327177 -444.22864339 431.34959107 -439.3125 390.25 C-439.23235657 389.56921387 -439.15221313 388.88842773 -439.06964111 388.18701172 C-430.04571774 312.36176969 -402.04755297 237.01102644 -355.3125 176.25 C-354.49788411 175.17248977 -353.6840747 174.09436933 -352.87109375 173.015625 C-350.38597117 169.73310482 -347.85757444 166.48618192 -345.3125 163.25 C-344.83087402 162.63543945 -344.34924805 162.02087891 -343.85302734 161.38769531 C-332.6320808 147.13125157 -320.25975358 134.13554306 -307.49752808 121.26080322 C-306.10927761 119.85971034 -304.72461843 118.45506192 -303.34008789 117.05029297 C-297.30897271 111.0120038 -290.971905 105.57871153 -284.3125 100.25 C-283.16440636 99.27938288 -282.0213576 98.30271821 -280.88671875 97.31640625 C-273.93440955 91.28605416 -266.76822255 85.79993056 -259.19970703 80.5612793 C-257.80557585 79.5926016 -256.41670215 78.61634715 -255.03076172 77.63598633 C-239.75065849 66.84394482 -223.86900729 56.95921437 -207.3125 48.25 C-206.08490967 47.5993457 -206.08490967 47.5993457 -204.83251953 46.93554688 C-141.54588338 13.62048372 -71.086117 0.05873387 0 0 Z M-49.625 197.4375 C-50.58865479 197.65108154 -51.55230957 197.86466309 -52.54516602 198.0847168 C-95.46303869 208.00940889 -133.16476535 234.23626845 -156.76074219 271.53955078 C-169.64384672 292.59930584 -186.3125 321.95872022 -186.3125 347.25 C-67.5125 347.25 51.2875 347.25 173.6875 347.25 C172.84055302 334.94858692 172.84055302 334.94858692 170.5625 323.0625 C170.34440674 322.17667236 170.12631348 321.29084473 169.90161133 320.37817383 C166.01700589 305.19486198 160.14261734 291.00893807 152.6875 277.25 C152.11128906 276.18136719 151.53507812 275.11273437 150.94140625 274.01171875 C144.56962361 262.66611963 136.60708609 252.68710473 127.6875 243.25 C126.95273438 242.45078125 126.21796875 241.6515625 125.4609375 240.828125 C114.55305871 229.37302821 101.60162969 220.62415506 87.6875 213.25 C86.79804687 212.74210937 85.90859375 212.23421875 84.9921875 211.7109375 C59.54685823 197.83841105 29.25953228 193.06190075 0.6315918 193.06469727 C-1.84539383 193.06252595 -4.32192176 193.04435848 -6.79882812 193.02539062 C-21.31453938 192.97286985 -35.42821958 194.28135517 -49.625 197.4375 Z " fill="#FEFEFE" transform="translate(1175.3125,383.75)"/>
<path d="M0 0 C3.6379041 0.05202497 7.27556623 0.03427129 10.91373789 0.02517271 C17.21008343 0.01889275 23.50493208 0.05640644 29.80090106 0.12402678 C38.90344119 0.22172656 48.00526059 0.25282119 57.10826819 0.26788267 C71.87831751 0.29411952 86.64756968 0.37390417 101.41718638 0.48751402 C115.76089592 0.59773272 130.10438863 0.68263861 144.44843638 0.73360777 C145.33320955 0.73676045 146.21798273 0.73991313 147.12956721 0.74316135 C151.5683993 0.75882227 156.00723293 0.77398666 160.44606757 0.78890419 C197.24665494 0.91322142 234.04633603 1.12450463 270.84614146 1.39278746 C267.9956291 5.71277186 265.00649712 9.84556106 261.78364146 13.89278746 C260.79922524 15.13754652 259.81485138 16.3823391 258.83051646 17.62716246 C258.3322938 18.25558043 257.83407115 18.88399839 257.32075083 19.53145933 C255.05117145 22.39623966 252.79179679 25.26899863 250.53364146 28.14278746 C250.0881898 28.70933043 249.64273814 29.27587339 249.18378794 29.85958433 C244.78161652 35.46389612 240.41030532 41.09209739 236.03828013 46.71993589 C232.05245484 51.8483826 228.04786906 56.96151324 224.02973521 62.06466246 C220.28358396 66.82653402 216.56313307 71.6081333 212.84614146 76.39278746 C206.43879385 84.63961069 199.99369497 92.85596857 193.5326649 101.06075621 C187.3404097 108.92597449 181.179464 116.81476849 175.03828013 124.71993589 C171.05245484 129.8483826 167.04786906 134.96151324 163.02973521 140.06466246 C159.28358414 144.82653379 155.56309934 149.60810733 151.84614146 154.39278746 C147.25880896 160.29786341 142.65556978 166.18971529 138.02973521 172.06466246 C134.28358396 176.82653402 130.56313307 181.6081333 126.84614146 186.39278746 C120.43879385 194.63961069 113.99369497 202.85596857 107.5326649 211.06075621 C101.3404097 218.92597449 95.179464 226.81476849 89.03828013 234.71993589 C85.05245484 239.8483826 81.04786906 244.96151324 77.02973521 250.06466246 C73.28358396 254.82653402 69.56313307 259.6081333 65.84614146 264.39278746 C59.43879385 272.63961069 52.99369497 280.85596857 46.5326649 289.06075621 C40.3404097 296.92597449 34.179464 304.81476849 28.03828013 312.71993589 C24.05245484 317.8483826 20.04786906 322.96151324 16.02973521 328.06466246 C12.28358396 332.82653402 8.56313307 337.6081333 4.84614146 342.39278746 C-1.56120615 350.63961069 -8.00630503 358.85596857 -14.4673351 367.06075621 C-20.6583143 374.92435376 -26.81948415 382.81038079 -32.95732534 390.71554136 C-36.04573496 394.69100686 -39.14261856 398.65898001 -42.2695812 402.60421324 C-46.75328448 408.28898618 -51.1554157 414.02321313 -55.48979604 419.82247496 C-56.31193594 420.92063536 -56.31193594 420.92063536 -57.15068471 422.04098082 C-58.48572537 423.82443207 -59.82010434 425.60837405 -61.15385854 427.39278746 C-60.08466177 427.40736998 -59.01546499 427.4219525 -57.91386831 427.43697691 C36.88387117 428.82509715 129.81233345 450.12075352 205.84614146 516.39278746 C206.54481333 516.99220152 207.24348521 517.59161558 207.96332896 518.20919371 C219.24846171 527.92564618 230.38536937 538.04866978 240.08832896 549.36153746 C241.23972474 550.69203925 242.41116019 552.00551888 243.60395396 553.29903746 C306.17620098 621.36926435 334.41770165 714.93568753 334.15864146 805.89278746 C334.15671831 807.23312955 334.15487778 808.57347175 334.15311778 809.91381407 C334.11685567 828.90648866 333.77468754 847.59231466 330.84614146 866.39278746 C330.66921763 867.58098082 330.4922938 868.76917418 330.31000865 869.99337339 C319.04417766 944.4179045 289.02175189 1014.8133829 238.84614146 1071.39278746 C237.65819968 1072.7674058 236.47062875 1074.14234483 235.28364146 1075.51778746 C225.0827767 1087.10517752 214.6173656 1098.37430058 202.84614146 1108.39278746 C201.7946427 1109.30732773 200.7439283 1110.22277024 199.69379771 1111.13888121 C187.02549149 1122.15456712 173.79630609 1132.06211617 159.84614146 1141.39278746 C159.27315318 1141.77789488 158.7001649 1142.1630023 158.10981333 1142.55977964 C105.32251064 1177.865573 44.52973209 1199.03516266 -18.21635854 1207.58028746 C-19.9156249 1207.81268126 -19.9156249 1207.81268126 -21.64921987 1208.04976988 C-25.47965307 1208.54380244 -29.31354556 1208.98444463 -33.15385854 1209.39278746 C-33.97263479 1209.48105803 -34.79141103 1209.56932859 -35.63499868 1209.66027403 C-52.07439021 1211.37552055 -68.46492493 1211.73817872 -84.97758901 1211.70846128 C-87.74761195 1211.70385145 -90.5171934 1211.7106955 -93.28715932 1211.7289691 C-190.89664165 1212.36593369 -289.17017783 1183.57678714 -366.15385854 1122.39278746 C-366.98659292 1121.74181089 -367.81932729 1121.09083433 -368.67729604 1120.42013121 C-380.49578886 1111.10685288 -391.65455994 1101.23155792 -402.25127065 1090.55611753 C-403.97634331 1088.82024015 -405.71197845 1087.09543656 -407.44878042 1085.37130308 C-414.14169354 1078.6863469 -420.28873598 1071.82342942 -426.15385854 1064.39278746 C-427.58774003 1062.66061902 -429.02485032 1060.93111412 -430.46635854 1059.20528746 C-440.29383659 1047.15207396 -449.17110906 1034.73670429 -457.15385854 1021.39278746 C-457.56877553 1020.70571714 -457.98369253 1020.01864683 -458.41118276 1019.31075621 C-495.80149771 957.32419794 -513.35434679 887.93158587 -513.40385854 815.76778746 C-513.40453329 814.86704496 -513.40520803 813.96630247 -513.40590322 813.03826475 C-513.3465101 762.32264984 -506.84196376 710.69979641 -491.15385854 662.39278746 C-490.8045226 661.31045835 -490.45518667 660.22812925 -490.09526479 659.1130023 C-474.77010882 612.10603349 -452.09461485 568.31376384 -426.15385854 526.39278746 C-425.3021105 525.01268492 -425.3021105 525.01268492 -424.43315542 523.60470152 C-417.02157257 511.62402021 -409.20882747 499.94937882 -401.15385854 488.39278746 C-400.65386343 487.67381285 -400.15386831 486.95483824 -399.63872182 486.21407652 C-386.64736581 467.56443456 -372.98086079 449.42784069 -359.15385854 431.39278746 C-358.67464956 430.76678648 -358.19544057 430.1407855 -357.7017101 429.4958148 C-349.6375274 418.96231953 -341.47258403 408.50675851 -333.32182729 398.04024839 C-324.71293105 386.98580033 -324.71293105 386.98580033 -316.15385854 375.89278746 C-309.25424948 366.90751226 -302.28234735 357.97835758 -295.32182729 349.04024839 C-286.71293105 337.98580033 -286.71293105 337.98580033 -278.15385854 326.89278746 C-271.25424948 317.90751226 -264.28234735 308.97835758 -257.32182729 300.04024839 C-250.78415734 291.64417226 -244.25868218 283.23986035 -237.77885854 274.79903746 C-233.98286211 269.8642421 -230.15087815 264.95733614 -226.32573354 260.04513121 C-222.92143425 255.67134668 -219.52888261 251.28920038 -216.15385854 246.89278746 C-209.25424948 237.90751226 -202.28234735 228.97835758 -195.32182729 220.04024839 C-186.71293105 208.98580033 -186.71293105 208.98580033 -178.15385854 197.89278746 C-171.25424948 188.90751226 -164.28234735 179.97835758 -157.32182729 171.04024839 C-148.71293105 159.98580033 -148.71293105 159.98580033 -140.15385854 148.89278746 C-133.25424948 139.90751226 -126.28234735 130.97835758 -119.32182729 122.04024839 C-112.78415734 113.64417226 -106.25868218 105.23986035 -99.77885854 96.79903746 C-95.98286211 91.8642421 -92.15087815 86.95733614 -88.32573354 82.04513121 C-84.92143425 77.67134668 -81.52888261 73.28920038 -78.15385854 68.89278746 C-71.25424948 59.90751226 -64.28234735 50.97835758 -57.32182729 42.04024839 C-50.77415149 33.63132214 -44.23362083 25.21717402 -37.72807729 16.77559996 C-37.11508228 16.04304928 -37.11508228 16.04304928 -36.48970354 15.2956996 C-35.0022409 13.31943983 -35.0022409 13.31943983 -33.9281286 10.4853282 C-27.03072295 -2.83035705 -13.22741865 -0.23726877 0 0 Z M-127.15385854 635.39278746 C-127.94453725 635.56971128 -128.73521596 635.74663511 -129.54985464 635.92892027 C-174.4068735 646.2414928 -214.23196341 672.78020896 -238.87822378 711.95260191 C-239.98538668 713.75727992 -241.07305628 715.57221043 -242.15385854 717.39278746 C-242.52752553 718.01427671 -242.90119253 718.63576597 -243.28618276 719.27608824 C-257.03064046 742.48048399 -264.20151963 770.33900504 -264.35698354 797.28341246 C-264.36399786 798.10205275 -264.37101217 798.92069304 -264.37823904 799.76414061 C-264.39563919 802.39041287 -264.40209086 805.01645968 -264.40385854 807.64278746 C-264.40453329 808.53984404 -264.40520803 809.43690062 -264.40590322 810.36114073 C-264.39009553 823.57533737 -264.0636653 836.44780577 -261.15385854 849.39278746 C-260.8884728 850.59354918 -260.8884728 850.59354918 -260.61772573 851.81856871 C-254.29371614 879.56120143 -242.03949762 905.9469473 -223.15385854 927.39278746 C-222.40104604 928.25517027 -221.64823354 929.11755308 -220.87260854 930.00606871 C-218.66371422 932.49863952 -216.42145394 934.95359025 -214.15385854 937.39278746 C-213.53124135 938.06954527 -212.90862417 938.74630308 -212.26713979 939.44356871 C-182.69548558 970.37911473 -137.57275522 986.19868535 -95.53276479 987.61544371 C-50.53658677 988.56242016 -5.99354761 975.55735367 27.51020396 944.53731871 C29.59367771 942.62456438 31.73103512 940.82098322 33.90864146 939.01778746 C38.870496 934.68237948 42.7968054 929.56544431 46.84614146 924.39278746 C47.66340708 923.39118589 48.48067271 922.38958433 49.32270396 921.35763121 C55.41171091 913.81396911 60.3014561 905.89192813 64.82319224 897.32442808 C65.76827538 895.5398224 66.74154451 893.77021993 67.71723521 892.00216246 C76.27974027 875.90694136 80.99914536 858.32106796 83.84614146 840.39278746 C83.96328501 839.67123472 84.08042857 838.94968199 84.20112193 838.20626402 C90.41282564 798.16708021 84.12571195 756.02350763 64.84614146 720.39278746 C63.97989146 718.78597105 63.97989146 718.78597105 63.09614146 717.14669371 C56.83529898 706.00181438 49.06277494 696.34982297 40.32661021 687.08419371 C37.84614146 684.39278746 37.84614146 684.39278746 35.73676646 681.74434996 C19.06037956 661.00223237 -10.34825685 647.17177639 -35.15385854 639.39278746 C-36.36428823 639.01251402 -37.57471792 638.63224058 -38.82182729 638.24044371 C-42.57453693 637.15596382 -46.33663898 636.21449275 -50.15385854 635.39278746 C-51.20162466 635.16631529 -51.20162466 635.16631529 -52.27055776 634.93526793 C-75.94724722 630.11464611 -103.57357412 630.01163228 -127.15385854 635.39278746 Z " fill="#FEFEFE" transform="translate(4681.153858542442,83.60721254348755)"/>
<path d="M0 0 C2.53773706 0.00546551 5.07530464 -0.00004394 7.61303711 -0.00634766 C9.24650104 -0.0056884 10.87996486 -0.00441042 12.51342773 -0.00244141 C13.63682304 -0.00547775 13.63682304 -0.00547775 14.78291321 -0.00857544 C18.54069465 0.00829046 22.02782591 0.22740249 25.68139648 1.13037109 C22.86873708 4.99777778 19.69312919 7.95838921 16.09155273 11.04833984 C8.4512901 17.64843707 1.14138514 24.35343197 -5.31860352 32.13037109 C-6.5290332 33.50902344 -6.5290332 33.50902344 -7.76391602 34.91552734 C-39.54806551 71.24603911 -59.82068336 116.24403519 -68.63110352 163.50537109 C-68.77829834 164.28630127 -68.92549316 165.06723145 -69.07714844 165.87182617 C-72.07355472 183.15770651 -72.59382734 200.37787878 -72.44360352 217.88037109 C-72.43353606 219.95718961 -72.42441698 222.03401295 -72.41625977 224.11083984 C-72.39458492 229.11747305 -72.36027097 234.12386602 -72.31860352 239.13037109 C-73.39456787 239.66146484 -74.47053223 240.19255859 -75.57910156 240.73974609 C-77.01707277 241.45315816 -78.45497605 242.16670715 -79.89282227 242.88037109 C-80.59886597 243.22841797 -81.30490967 243.57646484 -82.03234863 243.93505859 C-106.76776265 256.23514361 -128.29195482 274.47341174 -145.31860352 296.13037109 C-146.09848633 297.09330078 -146.87836914 298.05623047 -147.68188477 299.04833984 C-196.49292364 360.47084331 -214.70517501 443.68330067 -222.50610352 519.94287109 C-222.5849176 520.69605621 -222.66373169 521.44924133 -222.74493408 522.22525024 C-225.73182364 551.16642976 -226.66000547 580.15101241 -226.5793457 609.22827148 C-226.56794287 613.3673969 -226.57475678 617.50626518 -226.58622265 621.64538193 C-226.65342535 650.27956987 -225.47083086 678.76239414 -222.50610352 707.25537109 C-222.42245544 708.07558746 -222.33880737 708.89580383 -222.25262451 709.74087524 C-216.53421807 765.40928955 -204.67203354 821.05643063 -181.31860352 872.13037109 C-180.66829487 873.59235769 -180.01854295 875.05459206 -179.36938477 876.51708984 C-157.48833439 925.09846279 -119.82349749 970.63341667 -69.3034668 990.62963867 C-19.35123239 1009.52301146 37.20845219 1009.27775074 86.12768555 987.30322266 C112.48027435 975.03464138 136.11775654 955.22974574 153.68139648 932.13037109 C154.16576172 931.49534668 154.65012695 930.86032227 155.14916992 930.20605469 C163.10723884 919.69895508 170.10793442 908.86298472 176.47192383 897.32324219 C177.57671899 895.3201598 178.69915043 893.32816562 179.82592773 891.33740234 C214.74874492 828.77867876 226.32425486 753.6188069 231.68139648 683.13037109 C231.74198242 682.33536194 231.80256836 681.54035278 231.86499023 680.72125244 C236.86737876 613.84036005 233.58790303 546.52432901 224.68139648 480.13037109 C225.86390991 479.95030518 225.86390991 479.95030518 227.0703125 479.76660156 C258.8393814 474.86628665 288.60993545 467.15343062 317.68139648 453.13037109 C318.40391602 452.78280762 319.12643555 452.43524414 319.87084961 452.07714844 C337.34321401 443.54742837 353.64034664 432.41906388 368.68139648 420.13037109 C369.23311523 419.68016602 369.78483398 419.22996094 370.35327148 418.76611328 C383.3839395 408.06130211 395.30613026 396.44897526 405.68139648 383.13037109 C406.55997122 382.0405105 407.44026511 380.95203417 408.32202148 379.86474609 C420.11918579 365.23451893 429.5330695 349.52487422 438.68139648 333.13037109 C440.79789119 336.30511315 441.77322103 339.04590941 442.96655273 342.66552734 C443.18345261 343.32302979 443.40035248 343.98053223 443.62382507 344.65795898 C444.33763823 346.83401727 445.04208875 349.01291257 445.74389648 351.19287109 C445.98716675 351.94655975 446.23043701 352.70024841 446.4810791 353.47677612 C469.76335405 425.90300889 482.01595615 503.59429203 482.91967773 589.70458984 C482.92452179 590.60193281 482.92936584 591.49927578 482.93435669 592.42381096 C482.97049579 599.22182622 482.98666066 606.01976844 482.99389648 612.81787109 C482.99519436 613.81837242 482.99649223 614.81887375 482.99782944 615.8496933 C483.03083177 649.44606629 482.18887761 682.68934693 478.68139648 716.13037109 C478.58473694 717.06492126 478.48807739 717.99947144 478.38848877 718.96234131 C469.820103 801.1313791 449.60757684 881.72474679 370.68139648 1033.13037109 C370.21668945 1033.80471191 369.75198242 1034.47905273 369.27319336 1035.17382812 C362.41597442 1045.10956794 355.25982087 1054.7346417 347.68139648 1064.13037109 C346.91053711 1065.09587891 346.13967773 1066.06138672 345.34545898 1067.05615234 C340.82764926 1072.6598216 336.12030804 1078.04245841 331.23608398 1083.32958984 C329.90093595 1084.79335305 328.56964113 1086.26156641 327.28491211 1087.76977539 C321.90651996 1094.07642218 316.0795561 1099.91831597 310.22192383 1105.77514648 C308.44377877 1107.55547362 306.67380087 1109.34365487 304.90405273 1111.13232422 C298.1358066 1117.93355712 291.21173783 1124.17265327 283.68139648 1130.13037109 C282.59113428 1131.05323676 281.50651545 1131.98287617 280.43139648 1132.92333984 C222.77673119 1183.12548449 150.03199707 1213.24482051 74.99389648 1224.88037109 C73.72562012 1225.07920898 72.45734375 1225.27804687 71.15063477 1225.48291016 C49.55583848 1228.67140357 28.01422289 1229.50935885 6.203125 1229.44842911 C4.14900636 1229.44278205 2.094896 1229.43996585 0.04077148 1229.43734741 C-19.88666643 1229.400427 -39.56434838 1229.01225432 -59.31860352 1226.13037109 C-60.54095703 1225.95876465 -61.76331055 1225.7871582 -63.02270508 1225.61035156 C-137.13838949 1214.96395222 -206.79481186 1186.09308258 -265.31860352 1139.13037109 C-266.34856445 1138.31181641 -267.37852539 1137.49326172 -268.43969727 1136.64990234 C-273.69094587 1132.41831366 -278.75930026 1128.01645918 -283.73657227 1123.46630859 C-285.11853203 1122.2160636 -286.50608455 1120.97121003 -287.92675781 1119.76513672 C-294.2443869 1114.37737872 -300.09639038 1108.53869011 -305.96337891 1102.67089844 C-307.74370604 1100.89275338 -309.53188729 1099.12277548 -311.32055664 1097.35302734 C-318.12313852 1090.58344106 -324.34758135 1083.65133136 -330.31860352 1076.13037109 C-331.31315404 1074.96606398 -332.31583535 1073.80859892 -333.33032227 1072.66162109 C-352.44918527 1051.04518584 -369.08958964 1026.22467915 -383.31860352 1001.13037109 C-383.6932373 1000.47439941 -384.06787109 999.81842773 -384.45385742 999.14257812 C-387.47299935 993.8396789 -390.41064789 988.49492028 -393.31860352 983.13037109 C-393.77605957 982.29070801 -394.23351563 981.45104492 -394.70483398 980.5859375 C-431.94266321 911.90112581 -454.89737753 835.44743824 -444.02514648 366.72363281 C-421.91969595 292.35941475 -387.70368549 219.64383381 -337.31860352 160.13037109 C-336.44956496 159.08785972 -335.58110504 158.04486581 -334.71313477 157.00146484 C-325.11327186 145.52333133 -314.991111 134.61595176 -304.41186523 124.03833008 C-302.81406459 122.43832591 -301.22448801 120.83043495 -299.63500977 119.22216797 C-293.91004941 113.46673635 -288.08454994 108.09345846 -281.71264648 103.05078125 C-279.3748549 101.17549381 -277.15339167 99.2164562 -274.94360352 97.19287109 C-200.91764873 30.88340276 -97.99194401 -0.25153426 0 0 Z " fill="#FEFEFE" transform="translate(5515.318603515625,65.86962890625)"/>
<path d="M0 0 C9.0000045 1.12500056 9.0000045 1.12500056 12.26086426 1.89198303 C13.38298073 2.15270615 13.38298073 2.15270615 14.52776623 2.4186964 C15.3236229 2.60802903 16.11947958 2.79736166 16.93945312 2.99243164 C17.807953 3.19550839 18.67645288 3.39858515 19.57127094 3.60781574 C22.47554037 4.28797703 25.37837478 4.974071 28.28125 5.66015625 C30.38180855 6.15340068 32.48245291 6.64627981 34.58317566 7.13882446 C40.34074949 8.48988977 46.09708818 9.84615269 51.85323715 11.20327377 C58.04052627 12.66108205 64.22895086 14.11405512 70.41723633 15.56762695 C81.7604981 18.23282608 93.10287597 20.90176084 104.44478023 23.57273018 C118.21530405 26.81562383 131.9865806 30.05531133 145.75803226 33.29426217 C150.62041299 34.43787657 155.48274445 35.58170022 160.345047 36.72564697 C161.03782126 36.88863431 161.73059552 37.05162164 162.44436294 37.21954799 C165.25224598 37.88015385 168.06012853 38.54076185 170.86801064 39.20137167 C179.34520297 41.19577342 187.82252756 43.18961124 196.30004507 45.1826303 C204.15847842 47.03011867 212.01677455 48.87819008 219.875 50.7265625 C220.94116629 50.97732119 220.94116629 50.97732119 222.0288713 51.23314571 C240.88535374 55.66825318 259.73816105 60.11857423 278.58645916 64.58833981 C290.99458525 67.53082959 303.40415842 70.4671585 315.81475544 73.39920902 C323.93061427 75.31699461 332.04488461 77.24125588 340.15723336 79.17383623 C345.65500804 80.48299928 351.15449853 81.78477222 356.65540874 83.08069658 C359.82625531 83.8279644 362.9958992 84.57979654 366.16404724 85.33843613 C369.59833592 86.1603156 373.03536511 86.96954587 376.47338867 87.77563477 C377.47638347 88.01890849 378.47937826 88.26218222 379.51276684 88.51282787 C380.43343095 88.72596787 381.35409506 88.93910788 382.30265808 89.15870667 C383.49090573 89.44065305 383.49090573 89.44065305 384.70315838 89.72829533 C389.49223791 90.29481906 393.02043965 88.65164989 397.11328125 86.33203125 C398.10134766 85.77580078 399.08941406 85.21957031 400.10742188 84.64648438 C401.16509766 84.04126953 402.22277344 83.43605469 403.3125 82.8125 C404.42044922 82.18537109 405.52839844 81.55824219 406.66992188 80.91210938 C415.14764164 76.09861109 423.56846038 71.18833916 431.97583008 66.25317383 C440.13705603 61.47254216 448.38013239 56.84931762 456.64453125 52.25 C463.81353695 48.25035548 470.92092763 44.15651956 478 40 C487.1375292 34.63484524 496.35036092 29.42199216 505.609375 24.26977539 C514.11913696 19.52245608 522.54680097 14.6429258 530.94726562 9.70507812 C532.33461914 8.89006836 532.33461914 8.89006836 533.75 8.05859375 C534.54921875 7.58736084 535.3484375 7.11612793 536.171875 6.63061523 C537.10515625 6.09251221 538.0384375 5.55440918 539 5 C539.53227611 4.59348908 540.06455221 4.18697816 540.61295789 3.76814872 C548.33719977 -1.53643755 557.01299382 -0.68007572 565.97621155 -0.60127258 C567.81951897 -0.60345437 569.66282487 -0.60783487 571.50612253 -0.61421841 C576.55968841 -0.62538023 581.61272283 -0.60542407 586.66622102 -0.58032811 C592.12010109 -0.55871561 597.5739517 -0.5660441 603.02786255 -0.56983948 C612.47323253 -0.57245996 621.91842967 -0.55678581 631.36375618 -0.52865028 C645.02004704 -0.48799773 658.67625441 -0.47499125 672.33259922 -0.46871033 C694.48960123 -0.45776992 716.64651532 -0.42454553 738.8034668 -0.37719727 C760.32559747 -0.33125874 781.8477033 -0.29593328 803.36987305 -0.2746582 C804.72378908 -0.27330499 806.07770511 -0.27195147 807.43162113 -0.27059764 C817.91440519 -0.26016947 828.39718987 -0.25041582 838.87997472 -0.24082482 C890.25340101 -0.19366495 941.62659674 -0.09307151 993 0 C993 83.49 993 166.98 993 253 C877.83 253 762.66 253 644 253 C644.43518321 315.55740777 644.43518321 315.55740777 644.9909668 378.11376953 C645.04064941 390.23803711 645.04064941 390.23803711 645.04988098 395.92160034 C645.0600928 399.87501518 645.10115807 403.8267904 645.16133118 407.77975464 C645.23726387 412.83565339 645.25931879 417.8891976 645.24379504 422.94561362 C645.24703666 424.79269181 645.26857449 426.63985943 645.31136644 428.48644471 C645.57262763 440.31834397 643.87019184 447.37104319 635.71062946 456.18232536 C634.81612174 457.11215799 633.92161402 458.04199062 633 459 C631.79537244 460.4571122 630.60164742 461.9235648 629.43359375 463.41015625 C628.43568384 464.62825016 627.43700338 465.84571327 626.4375 467.0625 C622.54899317 471.82074386 618.72656813 476.61378668 615 481.5 C610.73792101 487.08836614 606.33360701 492.54628513 601.88671875 497.98828125 C598.3766397 502.28936403 594.91574324 506.62369623 591.5 511 C587.54086551 516.07250515 583.50905284 521.07983044 579.4375 526.0625 C575.55018227 530.82173946 571.72660109 535.61374347 568 540.5 C563.73792101 546.08836614 559.33360701 551.54628513 554.88671875 556.98828125 C551.3766397 561.28936403 547.91574324 565.62369623 544.5 570 C540.54086551 575.07250515 536.50905284 580.07983044 532.4375 585.0625 C528.55018227 589.82173946 524.72660109 594.61374347 521 599.5 C516.73854125 605.08755288 512.33451114 610.54436426 507.88891602 615.98608398 C503.90033295 620.87442671 499.97971852 625.81069623 496.09399414 630.78100586 C492.25899454 635.68294249 488.37284837 640.54250371 484.47802734 645.39697266 C481.14512078 649.55584639 477.84508715 653.73884201 474.5625 657.9375 C470.06608669 663.68508919 465.47720521 669.35295691 460.86254883 675.00585938 C456.62559099 680.20532901 452.4627623 685.45931099 448.33789062 690.74804688 C445.08952873 694.91047127 445.08952873 694.91047127 444 696 C464.26845636 696.06840563 484.53320191 695.97703993 504.80078125 695.78125 C505.94635372 695.77026276 507.09192619 695.75927551 508.27221298 695.74795532 C518.98969859 695.64465818 529.70713881 695.53695373 540.42456055 695.42724609 C546.36544408 695.36660229 552.3063505 695.30872498 558.2472744 695.25218201 C560.43273098 695.23087121 562.61817893 695.20864035 564.80361366 695.18519592 C591.20141848 694.90214085 617.6010775 694.97910184 644 695 C644.36636707 742.42377773 644.64822709 789.84740544 644.81704527 837.2723198 C644.83705614 842.87352476 644.85776534 848.47472693 644.87890625 854.07592773 C644.88310322 855.19100762 644.88730018 856.30608751 644.89162433 857.4549577 C644.96121173 875.50115101 645.08734466 893.54652732 645.23444474 911.59223624 C645.38416639 930.11428128 645.47296042 948.635899 645.50541592 967.15852433 C645.52735125 978.58494994 645.59657569 990.00906629 645.72666347 1001.43478081 C645.81136171 1009.27410398 645.83677577 1017.11223671 645.81602204 1024.95198401 C645.80578953 1029.473547 645.82125391 1033.99108192 645.9072876 1038.51192474 C646.42352449 1067.02904149 646.42352449 1067.02904149 640.54000854 1073.91414833 C637.3174906 1076.87111813 633.89302044 1079.02450325 629.9844799 1080.96019137 C626.87904389 1082.58734777 624.34073376 1084.72691888 621.625 1086.9375 C620.01974381 1088.16282566 618.41448239 1089.38814449 616.80908203 1090.61328125 C613.21286164 1093.36989823 609.63858852 1096.1548491 606.0625 1098.9375 C604.90886963 1099.8351709 604.90886963 1099.8351709 603.73193359 1100.75097656 C596.80432091 1106.14580177 589.89830858 1111.56778393 583 1117 C574.57943414 1123.63094911 566.13691374 1130.2324962 557.67285156 1136.80786133 C553.10448985 1140.35838894 548.54583587 1143.92068531 544 1147.5 C537.91029064 1152.29493471 531.79279083 1157.05358699 525.671875 1161.80859375 C521.10386022 1165.35890456 516.54551618 1168.92093702 512 1172.5 C505.91029064 1177.29493471 499.79279083 1182.05358699 493.671875 1186.80859375 C489.10386022 1190.35890456 484.54551618 1193.92093702 480 1197.5 C473.91029064 1202.29493471 467.79279083 1207.05358699 461.671875 1211.80859375 C457.10386022 1215.35890456 452.54551618 1218.92093702 448 1222.5 C441.91029064 1227.29493471 435.79279083 1232.05358699 429.671875 1236.80859375 C425.10386022 1240.35890456 420.54551618 1243.92093702 416 1247.5 C409.91029064 1252.29493471 403.79279083 1257.05358699 397.671875 1261.80859375 C393.10385981 1265.35890488 388.54555716 1268.92098863 384 1272.5 C378.47237901 1276.851427 372.92727732 1281.1800791 367.375 1285.5 C366.21871094 1286.40008789 366.21871094 1286.40008789 365.0390625 1287.31835938 C364.31203125 1287.88361328 363.585 1288.44886719 362.8359375 1289.03125 C362.19188965 1289.53205078 361.5478418 1290.03285156 360.88427734 1290.54882812 C360.26246582 1291.02771484 359.6406543 1291.50660156 359 1292 C358.30213379 1292.55623047 357.60426758 1293.11246094 356.88525391 1293.68554688 C355 1295 355 1295 353 1295 C353 951.14 353 607.28 353 253 C236.51 253 120.02 253 0 253 C0 169.51 0 86.02 0 0 Z " fill="#FEFEFE" transform="translate(0,0)"/>
<path d="M0 0 C32.15942031 27.88337551 50.99469909 66.20062969 54.66064453 108.49707031 C57.49855979 149.43240097 43.63686634 189.95427302 17 221 C-10.66147199 252.46346955 -48.78010913 273.11481384 -91 276 C-135.30033375 278.1964378 -176.26230572 263.96050268 -209.23925781 234.36401367 C-231.21503732 214.28694657 -246.4931075 188.25456131 -254.375 159.625 C-254.61355713 158.75891113 -254.85211426 157.89282227 -255.09790039 157.00048828 C-258.32395004 144.64892704 -259.37731339 132.5257556 -259.3125 119.8125 C-259.31100952 119.08766418 -259.30951904 118.36282837 -259.3079834 117.61602783 C-259.26688992 106.48613612 -258.60838852 95.84776168 -256 85 C-255.70996094 83.71996094 -255.41992188 82.43992187 -255.12109375 81.12109375 C-249.03094546 56.27634656 -236.52175936 32.82851504 -219.0078125 14.18359375 C-216.96681029 12.03623152 -216.96681029 12.03623152 -215.2421875 9.66015625 C-190.76701395 -19.37746254 -150.22948471 -34.34259053 -113.52734375 -37.65234375 C-72.4081204 -40.98449221 -31.25029129 -26.57735054 0 0 Z " fill="#FEFEFE" transform="translate(5815,158)"/>
</svg>
